<?xml version="1.0" encoding="UTF-8"?>
<svg width="1280" height="1280" version="1.1" viewBox="0 0 1280 1280" xmlns="http://www.w3.org/2000/svg">
 <path d="m209.5 1192c-13.262-2.1399-21.736-3.9165-22.813-4.7832-0.65277-0.525-2.6843-1.275-4.5146-1.6666s-7.2303-2.6907-12-5.1091-9.0511-4.4-9.5141-4.4035c-0.46301-0-2.038-0.9286-3.5-2.0559-12.455-9.6036-15.785-12.4-20.907-17.556-7.7926-7.8442-17.657-20.055-19.706-24.395-1.9708-4.1734-4.6038-8.9138-6.8845-12.395-0.91355-1.3943-1.6753-3.3384-1.6928-4.3202-0.0175-0.9819-0.62301-2.5637-1.3456-3.5152-1.5325-2.018-5.9075-15.621-7.8058-24.27-1.0779-4.9111-1.3168-84.582-1.3168-439v-433l2.1721-10c4.1751-19.222 4.71-20.659 15.367-41.276 2.0685-4.002 5.6142-9.731 7.8793-12.731 6.7632-8.9578 21.85-24.159 28.431-28.645 3.3833-2.3067 8.1764-5.6046 10.651-7.3286 6.9616-4.8493 22.796-12.15 30-13.831 3.575-0.83457 7.85-1.9847 9.5-2.5558 1.65-0.57114 6.15-1.8468 10-2.8348 6.6752-1.713 27.233-1.8088 443-2.0634 386.4-0.23664 436.53-0.0954 440.66 1.2414 2.5638 0.82962 6.3532 1.7772 8.4207 2.1058 2.0675 0.32858 4.6948 1.1941 5.8384 1.9234 1.1436 0.72927 4.3861 1.9985 7.2056 2.8205 2.8195 0.82204 6.8695 2.641 9 4.0422 15.529 10.213 23.415 17.059 28.89 25.082 1.8962 2.7786 4.7103 6.8519 6.2535 9.0519 4.633 6.6048 10.948 20.604 12.179 27 0.6352 3.3 1.9191 8.475 2.8533 11.5 1.5867 5.1383 1.6984 33.747 1.6984 435 0 340.11-0.259 430.2-1.2445 432.88-0.6845 1.8609-1.9146 7.5477-2.7336 12.638-1.5753 9.7894-5.921 24.646-8.1762 27.952-0.7402 1.0849-1.3457 2.7117-1.3457 3.6151 0 0.9035-0.8381 2.7159-1.8624 4.0275-1.0244 1.3117-2.2026 3.5099-2.6183 4.8849s-1.3244 3.175-2.0193 4-1.5934 2.625-1.9967 4c-0.4032 1.375-1.5297 3.4-2.5033 4.5s-2.0851 3.0373-2.47 4.3052c-1.6254 5.354-24.352 31.572-31.53 36.375-1.925 1.2879-6.875 4.8913-11 8.0076s-9.9817 6.9692-13.015 8.562c-3.0332 1.5929-6.6332 3.6203-8 4.5054-1.3667 0.8852-3.835 1.9184-5.485 2.296-1.65 0.3777-3.9 1.24-5 1.9161-1.1 0.6762-3.731 1.7969-5.8467 2.4905-2.1156 0.6936-5.0406 1.8841-6.5 2.6455-1.4593 0.7614-3.5533 1.3871-4.6533 1.3903-1.1 0-4.7 0.8797-8 1.9476s-11.4 2.7485-18 3.7348c-11.373 1.6994-33.095 1.8011-415.5 1.9463-221.92 0.084-405.75-0.2099-408.5-0.6536zm808.8-88.957c2.6396-0.5565 6.2396-1.0149 8-1.0185 1.7604-0 4.5508-0.9006 6.2008-1.9934s3.675-1.9964 4.5-2.0082c0.825-0.012 2.625-0.6624 4-1.446 4.0104-2.2855 9.2381-5.1482 12.89-7.0585 3.4326-1.7957 16.748-14.48 20.982-19.987 1.2684-1.65 3.0389-4.575 3.9344-6.5s2.3575-4.625 3.2487-6c1.7125-2.6419 2.6009-5.7775 5.9005-20.826 2.0414-9.3103 2.0448-10.006 2.0448-423.59v-414.27l-3.25-6.3419c-2.3425-4.571-4.223-6.8482-6.7344-8.1552-3.3486-1.7426-19.815-1.8133-422.5-1.8133-413.67 0-419.11 0.0251-425.9 1.9669-7.4064 2.118-17.127 6.8123-22.378 10.807-4.049 3.0804-12.014 14.34-13.875 19.614-0.76433 2.1664-1.83 4.4694-2.3682 5.1178-0.53818 0.64847-1.4244 5.4123-1.9693 10.586-1.4183 13.467-1.3878 820.14 0.0315 834.05 0.58133 5.6958 1.6473 11.263 2.3689 12.371 0.72155 1.108 1.638 3.4995 2.0366 5.3144 0.70097 3.1915 10.74 15.171 12.713 15.171 0.50645 0 2.8116 0.9403 5.1225 2.0896 6.1644 3.0656 13.714 3.9788 37.785 4.5707 24.521 0.6029 24.917 0.4955 24.917-6.7716 0-2.1826 0.9-5.7325 2-7.8887s2.0002-5.4008 2.0005-7.2102c2.8e-4 -1.8094 0.90028-5.6571 2-8.5505 1.0997-2.8934 1.9995-6.3436 1.9995-7.6671s0.9-4.506 2-7.0722 2.0198-5.641 2.0439-6.8329c0.0241-1.1919 0.72403-3.9671 1.5553-6.1671s2.3704-7.9286 3.4202-12.73c1.0498-4.8016 2.6-10.067 3.4447-11.7 0.84476-1.6336 1.5359-4.3442 1.5359-6.0235s0.9-4.7325 2-6.7848c1.1-2.0524 2-4.7687 2-6.0362 0-1.2676 0.9-4.0688 2-6.225s2-4.8562 2-6 0.9-3.8438 2-6 2.0153-4.7258 2.0339-5.7102c0.0187-0.98441 0.90339-3.5898 1.9661-5.7898 2.3627-4.8913 2.4094-6.4956 0.3929-13.5-0.87086-3.025-1.9464-9.1-2.3902-13.5-0.44374-4.4-1.5188-10.7-2.3892-14-0.87029-3.3-1.5894-8.9655-1.598-12.59-0.00858-3.6245-0.91561-10.109-2.0156-14.41-1.2564-4.9127-2-11.093-2-16.624 0-4.8425-0.89864-13.433-1.997-19.09-1.1382-5.8622-1.9983-14.404-2-19.861-2e-3 -5.2668-0.74351-14.492-1.6486-20.5-2.0523-13.625-2.3237-73.645-0.39747-87.924 0.66776-4.95 1.5816-14.625 2.0308-21.5s1.3252-14.075 1.9468-16 1.5398-8 2.0404-13.5c0.50067-5.5 1.6111-11.673 2.4676-13.718 0.85654-2.0448 1.5574-5.7525 1.5574-8.2393 0-2.4868 0.89977-6.8887 1.9995-9.7821 1.0997-2.8934 1.9997-6.4891 2-7.9905 2.7e-4 -1.5014 0.6609-4.4264 1.4681-6.5s2.3649-8.1467 3.4616-13.496 2.6863-11.064 3.5324-12.7 1.5384-3.9152 1.5384-5.0644c0-1.1492 0.9-3.8536 2-6.0098s2-4.6012 2-5.4334 0.85214-3.4376 1.8936-5.7898c1.0415-2.3522 2.8921-6.7518 4.1125-9.7768 5.2413-12.992 7.3009-17.777 9.5769-22.251 1.3294-2.6128 2.417-5.6237 2.417-6.691 0-1.0673 0.45332-2.2206 1.0074-2.5631s1.8281-2.2815 2.8311-4.309c1.0031-2.0275 2.8733-5.4864 4.156-7.6864 1.2827-2.2 3.0048-5.35 3.8269-7 0.82209-1.65 2.3236-4.1945 3.3366-5.6544 1.0131-1.4599 1.8419-3.1774 1.8419-3.8167 0-0.6393 1.125-2.6373 2.5-4.44s2.5-3.5501 2.5-3.8832 1.4625-2.7013 3.25-5.263 3.925-5.7044 4.75-6.984 2.9781-4.2688 4.7847-6.6426c1.8066-2.3739 4.5066-6.1883 6-8.4764 11.467-17.569 63.256-68.866 80.339-79.575 1.4428-0.90451 5.2253-3.9216 8.4056-6.7046 3.1803-2.783 6.3322-5.06 7.0043-5.06 0.67209 0 1.7922-0.68706 2.4891-1.5268 1.4112-1.7004 8.6492-6.7452 10.978-7.6514 0.825-0.32106 7.2069-4.3498 14.182-8.9528 16.521-10.902 19.233-12.554 22.006-13.402 1.2714-0.38865 4.9103-2.426 8.0864-4.5274 3.1762-2.1014 6.7762-4.1345 8-4.5178s3.2983-1.5352 4.61-2.5595 2.811-1.8624 3.3317-1.8624c0.52079 0 3.6267-1.5706 6.902-3.4902 3.2753-1.9196 7.176-3.7879 8.6683-4.1517 2.45-0.59733 14.849-6.3962 24.411-11.416 2.034-1.0679 4.3358-1.9416 5.1151-1.9416s2.5257-0.8721 3.8808-1.938 3.7783-2.2621 5.3849-2.6582 3.8211-1.2778 4.9211-1.9593 4.5256-1.9549 7.6125-2.8298c3.0869-0.87487 6.9119-2.2683 8.5-3.0966 1.5881-0.82823 3.4945-1.5086 4.2364-1.512 0.74188-3e-3 2.7669-0.64967 4.5-1.4362 4.6442-2.1076 15.635-6.2688 19.651-7.4402 1.925-0.56145 6.65-2.209 10.5-3.6612s9.8871-3.2854 13.416-4.0738c5.7753-1.2903 15.438-3.9957 28.084-7.8635 2.475-0.75693 6.3-1.6764 8.5-2.0432s4.45-1.0282 5-1.4696 4.15-1.5029 8-2.3589c3.85-0.85597 9.4606-2.2545 12.468-3.1079 3.0074-0.8534 6.4796-1.5516 7.7161-1.5516s3.7259-0.63034 5.5321-1.4008 9.1339-2.1602 16.284-3.0884 15.219-2.3229 17.932-3.0992c2.7123-0.77638 6.8028-1.4116 9.09-1.4116 2.2872 0 7.493-0.84788 11.568-1.8842 4.0755-1.0363 11.235-2.2004 15.91-2.587s10.75-1.3125 13.5-2.0576 9.05-1.6464 14-2.0028c4.95-0.35635 11.475-1.2369 14.5-1.9567 3.025-0.71984 10.73-1.5944 17.122-1.9434 6.3922-0.34903 13.073-1.0507 14.846-1.5592 2.828-0.81108 22.912-2.5284 52.912-4.5242 5.1589-0.34322 13.034-1.2671 17.5-2.0531 10.003-1.7605 15.063-1.8166 16.39-0.18181 0.55785 0.6875 1.2657 4.625 1.5731 8.75s1.007 9.975 1.5548 13c1.5692 8.6651 3.6045 53.243 3.5841 78.5-0.0232 28.774-2.0012 68.304-3.978 79.5-0.82539 4.675-1.5111 11.425-1.5237 15-0.0127 3.575-0.91328 10.527-2.0014 15.449-1.0881 4.9221-1.9784 11.231-1.9784 14.02 0 2.7889-0.9 8.3185-2 12.288s-2 8.9828-2 11.141-0.89419 6.7762-1.9871 10.263c-1.0929 3.4865-1.9929 8.2451-2 10.575-0.0127 4.1878-0.45093 6.5794-3.5296 19.264-0.86766 3.575-2.002 9.1014-2.5207 12.281-0.51874 3.1795-1.6225 7.0946-2.4529 8.7003-0.83035 1.6057-1.5196 4.4043-1.5317 6.2191-0.0121 1.8148-0.91208 5.2613-2 7.6589-1.0879 2.3976-1.9879 5.5476-2 7-0.0121 1.4524-0.91208 4.6024-2 7-1.0879 2.3976-1.978 5.44-1.978 6.7609s-0.85476 4.3093-1.8995 6.6408c-1.0447 2.3315-2.4144 6.4891-3.0437 9.2391-2.0243 8.8455-5.2031 18.901-7.1558 22.636-1.0456 1.9999-1.901 4.7517-1.901 6.1152 0 1.3634-0.9 3.6232-2 5.0216s-2 3.6484-2 5-0.83021 3.5306-1.8449 4.8423-2.145 3.9303-2.5119 5.8192c-0.36682 1.8889-1.2732 4.1389-2.0141 5-0.74096 0.86109-1.8916 3.8006-2.557 6.5322-0.99944 4.1027-9.0699 22.363-14.378 32.533-2.2527 4.3157-6.208 12.187-10.552 21-2.3045 4.675-5.2826 10.3-6.6179 12.5-1.3354 2.2-2.7574 4.675-3.1602 5.5-0.40273 0.825-2.8992 4.8499-5.5477 8.9441-2.6485 4.0943-4.8155 7.7842-4.8155 8.1999 0 0.7611-2.6681 4.7237-10.003 14.856-2.1898 3.025-6.429 9.1-9.4203 13.5s-6.7074 9.4308-8.2578 11.179-5.5189 6.3856-8.8189 10.304c-17.959 21.326-33.864 37.602-49.366 50.516-3.961 3.3-9.5948 8.025-12.519 10.5-11.257 9.5263-20.566 16.316-39.615 28.897-4.125 2.7243-8.5985 5.7478-9.9412 6.719-1.3426 0.97115-5.7704 3.4581-9.8394 5.5266-4.069 2.0685-7.9308 4.2028-8.5817 4.743-1.2437 1.0322-10.35 6.05-17.138 9.4435-2.2 1.0998-4.675 2.5589-5.5 3.2423-0.825 0.68339-3.5209 1.7809-5.9908 2.439-2.47 0.65803-5.6894 2.0499-7.1544 3.093-1.465 1.0431-3.4941 1.9066-4.5092 1.9188-1.0151 0.0122-2.9706 0.90222-4.3456 1.9778s-3.0858 1.9655-3.8019 1.9778c-0.71604 0.0122-2.966 0.90036-5 1.9736-6.6763 3.5229-21.564 9.2178-28.698 10.978-3.85 0.94973-8.4402 2.4792-10.2 3.3989-1.7602 0.91966-4.0736 1.6721-5.1408 1.6721s-3.9021 0.89012-6.2997 1.978c-2.3976 1.0879-5.3226 1.9879-6.5 2-1.1774 0.0121-4.1024 0.91208-6.5 2-2.3976 1.0879-5.8396 1.9879-7.649 2s-5.054 0.92196-7.2102 2.022-5.6833 2-7.838 2-5.4352 0.6315-7.2898 1.4033c-4.0257 1.6753-22.95 4.5967-29.777 4.5967-2.6642 0-6.8131 0.709-9.2197 1.5756-2.4066 0.86656-10.001 1.974-16.876 2.4609s-17.404 1.5865-23.397 2.4434c-8.5314 1.2199-19.881 1.545-52.279 1.4979-22.76-0.0331-41.819 0.20988-42.353 0.54s-0.97118 1.6035-0.97118 2.8298c0 1.2262-0.9 3.9948-2 6.1524s-2 4.7326-2 5.7223-0.86593 3.7071-1.9243 6.0386-2.2366 5.8141-2.6183 7.7391c-0.38172 1.925-1.1855 4.4-1.7862 5.5-1.3856 2.5373-4.0313 12.067-7.0797 25.5-3.2681 14.401-5.4656 23.755-6.6955 28.5-0.57026 2.2-1.6058 7.5032-2.3013 11.785-0.69545 4.2817-1.7888 8.3092-2.4296 8.95-1.4035 1.4035-1.5384 5.9918-0.21511 7.3151 1.3439 1.344 642.95 0.8123 649.35-0.5381zm-534.46-199.45c10.706-0.38718 21.157-1.3799 27.324-2.5953 5.4922-1.0825 11.361-1.9682 13.042-1.9682 2.8077 0 5.9146-0.68006 24.797-5.4277 3.575-0.89888 9.7002-2.247 13.612-2.9959 6.7853-1.2991 16.844-4.227 24.388-7.099 1.925-0.7328 4.85-1.6088 6.5-1.9467 1.65-0.33789 4.8-1.4545 7-2.4813s6.25-2.7636 9-3.8596c2.75-1.0959 7.7-3.1179 11-4.4933 3.3-1.3754 7.4314-2.7986 9.1809-3.1628 1.7495-0.36421 3.7171-1.3083 4.3724-2.0979s1.6989-1.4351 2.3191-1.4342c1.1151 1e-3 16.925-7.8748 25.628-12.768 2.475-1.3914 7.425-4.0749 11-5.9632 6.5165-3.4421 11.627-6.6344 24.304-15.183 3.7422-2.5234 7.5545-5.038 8.4718-5.588 0.91732-0.55 3.9609-2.8 6.7635-5 2.8026-2.2 6.3556-4.9 7.8954-6 18.014-12.868 55.876-50.71 68.065-68.03 2.1931-3.1162 6.0169-7.8838 8.749-10.908 0.96307-1.0662 1.751-2.2437 1.751-2.6166 0-0.6097 4.7003-7.7638 16.717-25.445 2.2429-3.3 4.7994-7.575 5.6812-9.5 0.88175-1.925 3.0111-5.75 4.7319-8.5 3.7289-5.9591 9.5194-16.532 13.966-25.5 4.2114-8.494 12.576-26.086 13.313-28 0.31781-0.825 0.99885-2.175 1.5134-3 0.51458-0.825 1.7919-3.525 2.8384-6 1.0466-2.475 3.0696-7.2 4.4957-10.5 1.4261-3.3 3.254-8.025 4.0622-10.5 0.8081-2.475 2.6664-7.65 4.1295-11.5s3.1372-8.5725 3.7203-10.494c0.58301-1.9219 1.6835-4.3846 2.4455-5.4725s1.3883-2.8905 1.3917-4.0056c3e-3 -1.1151 0.71957-3.3775 1.5915-5.0275 1.9688-3.7256 5.1134-13.628 7.4626-23.5 1.6824-7.0702 2.4816-10.094 6.8723-26 3.3671-12.198 5.3084-20.495 6.2001-26.5 0.49006-3.3 1.5292-8.025 2.3091-10.5 0.77994-2.475 1.9364-7.875 2.5699-12 0.6335-4.125 1.5501-9.075 2.0369-11 0.48679-1.925 1.3766-8.9 1.9774-15.5s1.7606-15.825 2.5774-20.5 1.9144-14.125 2.439-21 1.6154-18.575 2.4239-26 1.4843-18.732 1.5019-25.128c0.0386-14.085-0.22421-14.481-8.5811-12.936-3.1649 0.58506-8.7092 1.0778-12.321 1.0949-3.6115 0.0172-11.966 0.70288-18.566 1.5238s-19.695 2.3464-29.1 3.3898c-9.4049 1.0435-18.855 2.3572-21 2.9194-2.1451 0.56219-7.9501 1.4699-12.9 2.0172s-11.25 1.656-14 2.4638c-2.75 0.80786-7.925 1.9462-11.5 2.5296s-8.525 1.5777-11 2.2095c-4.1661 1.0635-6.9875 1.8289-23.5 6.3752-3.3 0.90858-9.15 2.3294-13 3.1574-3.85 0.82801-9.7 2.3825-13 3.4544s-6.7184 1.9444-7.5964 1.9388c-0.878-6e-3 -2.9841 0.68217-4.6802 1.5283-1.6961 0.84613-5.2528 2.1598-7.9036 2.9192-10.388 2.9759-19.331 6.2717-28.919 10.657-2.2546 1.0312-5.542 2.1635-7.3055 2.5162-1.7635 0.3527-4.8515 1.48-6.8622 2.5052-2.0108 1.0252-4.2591 1.8639-4.9964 1.8639-0.73725 0-3.0046 0.88159-5.0386 1.9591-2.034 1.0775-7.0731 3.4934-11.198 5.3686-25.232 11.47-38.969 18.402-46.03 23.227-2.4585 1.6798-7.62 4.5929-11.47 6.4736-3.85 1.8806-7.9 4.14-9 5.0208-1.1 0.8808-5.6 3.7964-10 6.4791s-10.111 6.4739-12.692 8.425-6.8555 4.8891-9.5 6.5291c-2.6445 1.64-9.6802 6.9275-15.635 11.75-5.9547 4.8225-11.13 8.779-11.5 8.7922-0.37034 0.0131-3.5984 2.7552-7.1734 6.0935s-8.975 8.1679-12 10.733c-10.858 9.206-31.431 30.95-42.5 44.921-1.1 1.3883-3.8241 4.8203-6.0536 7.6265-2.2295 2.8063-5.035 6.7192-6.2346 8.6954-1.1996 1.9762-3.4254 5.1878-4.9464 7.1369-7.0591 9.0462-13.021 19.243-25.29 43.253-6.9704 13.641-8.5692 17.271-11.677 26.517-0.83205 2.475-2.2106 6.068-3.0634 7.9845-0.85279 1.9165-1.8818 4.8415-2.2868 6.5-0.40494 1.6585-1.4181 5.0405-2.2515 7.5155-4.1455 12.311-8.5943 29.853-9.8906 39-0.50666 3.575-1.5526 9.0176-2.3242 12.095-2.9168 11.631-5.9735 72.065-4.4715 88.405 0.50556 5.5 0.93525 14.298 0.95488 19.55 0.0331 8.8511 0.84871 11.95 3.1453 11.95 0.60476 0 5.7862-8.5725 10.805-17.877 0.77824-1.4427 3.1407-4.9664 5.25-7.8304 2.1093-2.864 3.835-5.6678 3.835-6.2306 0-0.8935 2.4691-4.8882 8.6917-14.062 0.93265-1.375 3.0796-4.3 4.7709-6.5s3.6544-5.1425 4.3623-6.5389c0.7079-1.3964 3.1744-5.0758 5.4811-8.1765 2.3067-3.1007 5.994-8.1984 8.194-11.328s5.575-7.6114 7.5-9.9591 6.1623-7.934 9.4162-12.414c3.2539-4.48 7.887-10.269 10.296-12.864 2.4087-2.5954 5.9348-7.0915 7.8358-9.9914 1.901-2.8999 7.4316-9.6499 12.29-15 4.8587-5.3501 9.0203-10.253 9.248-10.894 0.22773-0.6417 4.9453-6.0417 10.483-12 5.5381-5.9583 12.699-13.758 15.913-17.333 8.5326-9.4904 46.09-46.802 60.017-59.624 16.576-15.261 53.073-45.472 72-59.599 0.55-0.41053 2.35-1.7783 4-3.0394 1.65-1.2612 5.025-3.6167 7.5-5.2345s6.525-4.5346 9-6.4818c2.475-1.9472 7.65-5.5874 11.5-8.0894 3.85-2.502 12.343-8.1226 18.873-12.49 6.5303-4.3677 12.83-8.5701 14-9.3387 1.1697-0.76864 3.2605-2.1679 4.6461-3.1094 1.3856-0.94153 3.5654-2.0439 4.8439-2.4496 1.2785-0.40578 4.3565-2.1565 6.8401-3.8906 5.377-3.7543 9.9827-6.4889 16.935-10.055 2.8261-1.4496 6.7172-3.7071 8.6469-5.0166 1.9297-1.3095 4.5675-2.7129 5.8617-3.1186 1.2942-0.40573 3.4263-1.5758 4.738-2.6001s2.777-1.8624 3.2563-1.8624c0.4793 0 5.4811-2.6029 11.115-5.7841 10.43-5.8893 16.538-8.9667 27.244-13.727 6.5801-2.9256 15.205-7.2494 20.216-10.135 2.8848-1.661 3.373-1.6943 4.7439-0.32342 1.3482 1.3482 1.3643 2.3113 0.13683 8.1782-0.76525 3.6575-1.6695 7.1001-2.0095 7.6502-0.33999 0.55012-1.059 4.5193-1.5977 8.8204-0.93896 7.4961-2.2794 14.194-5.668 28.32-0.85755 3.575-1.8697 8.3164-2.2493 10.537-1.0836 6.3382-0.36109 5.7463-17.572 14.398-2.2 1.1059-5.6456 3.0356-7.6569 4.2882-2.0113 1.2526-6.2863 3.8028-9.5 5.667-3.2137 1.8642-8.6003 5.3517-11.97 7.75-3.3698 2.3983-6.4267 4.3605-6.7929 4.3605-0.64515 0-15.339 9.9252-22.206 15-1.8608 1.375-5.2874 3.85-7.6147 5.5-5.8019 4.1134-19.621 14.574-29.259 22.147-4.4 3.4575-9.8 7.686-12 9.3966s-6.475 5.4794-9.5 8.3749c-3.025 2.8955-6.4 5.7489-7.5 6.3409-5.3128 2.8592-58.65 54.68-79.07 76.822-13.743 14.902-33.689 38.468-46.93 55.446-6.05 7.7578-12.509 15.762-14.353 17.788s-4.025 4.982-4.846 6.5696c-0.82096 1.5876-4.046 6.0996-7.1668 10.027-3.1208 3.9272-9.1798 12.304-13.465 18.614-4.2847 6.3106-11.132 16.199-15.217 21.974s-7.7212 11.175-8.0816 12c-0.63504 1.4536-4.1065 6.9092-13.697 21.526-2.5353 3.864-6.0058 9.8195-7.7123 13.234s-3.5487 6.4846-4.094 6.8216c-0.54528 0.33701-1.4138 1.5815-1.93 2.7656-0.51621 1.1841-3.375 6.2029-6.3528 11.153-2.9778 4.95-9.0272 16.054-13.443 24.675-6.12 11.948-7.7369 15.917-6.8009 16.694 2.1234 1.7622 12.643 1.9195 46.496 0.69518z" fill="#00422d"/>
</svg>
